<?xml version="1.0" encoding="UTF-8"?>
<svg id="Laag_1" data-name="Laag 1" xmlns="http://www.w3.org/2000/svg" viewBox="0 0 289.78 84.3">
  <defs>
    <style>
      .cls-1 {
        fill: #635957;
        stroke-width: 0px;
      }
    </style>
  </defs>
  <path class="cls-1" d="M41.06,84.3c17.39,0,31.48-14.1,31.48-31.48s-14.09-31.48-31.48-31.48v16.09c8.5,0,15.39,6.89,15.39,15.39s-6.89,15.39-15.39,15.39v16.09Z"/>
  <path class="cls-1" d="M30.47,52.82c0,5.85,4.74,10.59,10.59,10.59s10.59-4.74,10.59-10.59-4.74-10.59-10.59-10.59-10.59,4.74-10.59,10.59"/>
  <path class="cls-1" d="M36.93,25.95V0h-15.8v39.88s15.8,3.05,15.8-13.94"/>
  <path class="cls-1" d="M37.01,84.3L10.04,21.33s-14.84,3.31-8.44,18.03c3.78,8.7,13.52,32.12,19.12,44.94h16.29Z"/>
  <path class="cls-1" d="M250.2,59.55h-1.62v.74l.38.03c.24.01.31.09.31.36v4.01c0,.25-.06.33-.3.35l-.35.04v.7h2.29v-.75l-.67-.04v-3.09c0-.8.68-1.64,1.69-1.64s1.26.64,1.26,1.57v2.85c0,.26-.05.31-.29.35l-.36.05v.7h2.29v-.75l-.66-.04v-3.46c0-1.43-.68-2.16-1.99-2.16-.82,0-1.54.31-1.98,1.08v-.9ZM246.62,61.06c0,1.2-1.3,1.37-2.86,1.24.09-.92.56-2.15,1.87-2.15.6,0,.99.25.99.9M247.58,61.02c0-1.08-.7-1.65-1.92-1.65-1.87,0-2.93,1.48-2.93,3.5,0,1.72.73,3.08,2.78,3.08.94,0,1.67-.38,1.98-.61l-.35-.73c-.24.16-.78.5-1.57.5-1.33,0-1.78-.97-1.83-2.02,2.18.14,3.84-.28,3.84-2.07M240.17,63.16c0,.93-.61,1.61-1.63,1.61-1.45,0-1.62-1.27-1.62-2.22,0-1.59.72-2.35,1.84-2.35.56,0,1.03.09,1.4.21v2.75ZM241.13,59.81c-.7-.3-1.63-.44-2.31-.44-1.69,0-2.93,1.03-2.93,3.22,0,2.01.99,3.01,2.46,3.01.77,0,1.41-.27,1.79-.81v.75c0,1.54-.59,2.08-1.79,2.08-.33,0-.61-.04-.83-.11-.24-.09-.26-.15-.26-.39v-.7l-.93.09v1.54c.53.26,1.33.41,2.07.41,2.54,0,2.73-1.89,2.73-3.03v-5.62ZM233.52,60.32c.16,0,.3.01.43.06.13.05.14.11.14.28v.84l.93-.09v-1.75c-.34-.2-.84-.29-1.16-.29-.94,0-1.53.49-1.77,1.1v-.93h-1.57v.74l.41.03c.21.01.28.09.28.34v4.01c0,.28-.09.35-.33.38l-.33.04v.7h2.54v-.75l-.93-.04v-3.14c0-.85.54-1.53,1.35-1.53M224.05,62.62c0,2.26,1,3.33,2.59,3.33s2.81-1.03,2.81-3.47c0-2.83-1.73-3.11-2.59-3.11-1.24,0-2.81.65-2.81,3.25M226.73,65.15c-1.43,0-1.64-1.47-1.64-2.66,0-1.31.5-2.31,1.69-2.31s1.62,1.08,1.62,2.51c0,1.29-.48,2.46-1.67,2.46M214.76,59.55h-1.57v.74l.38.03c.24.01.31.09.31.36v3.99c0,.28-.06.33-.3.36l-.35.05v.7h2.29v-.75l-.68-.04v-3.11c0-.85.63-1.62,1.56-1.62,1.13,0,1.25.76,1.25,1.57v2.85c0,.26-.04.31-.28.35l-.38.05v.7h2.29v-.75l-.68-.04v-3.17c0-.82.64-1.56,1.51-1.56,1.1,0,1.29.67,1.29,1.56v2.81c0,.31-.12.4-.36.43l-.29.02v.7h2.29v-.75l-.68-.04v-3.41c0-1.43-.71-2.2-2.01-2.2-.83,0-1.53.34-1.94,1.16-.34-.83-.96-1.16-1.79-1.16-.76,0-1.48.34-1.88,1.1v-.93ZM204.85,59.55h-1.62v.74l.38.03c.24.01.31.09.31.36v4.01c0,.25-.06.33-.3.35l-.35.04v.7h2.29v-.75l-.67-.04v-3.09c0-.8.68-1.64,1.69-1.64s1.25.64,1.25,1.57v2.85c0,.26-.05.31-.29.35l-.36.05v.7h2.29v-.75l-.66-.04v-3.46c0-1.43-.68-2.16-1.99-2.16-.82,0-1.54.31-1.98,1.08v-.9ZM200.62,63.63c0,.78-.59,1.49-1.64,1.49-1.29,0-1.59-1.13-1.59-2.16,0-1.49.48-2.76,1.98-2.76.53,0,1.03.11,1.25.21v3.21ZM201.58,59.77c-.8-.3-1.67-.4-2.06-.4-2.13,0-3.17,1.34-3.17,3.56,0,1.82.74,3.02,2.51,3.02.98,0,1.52-.47,1.83-.93h.04v.75h1.54v-.7l-.43-.02c-.2-.01-.26-.1-.26-.34v-4.94ZM191.21,60.66c-.06-.2-.04-.33.15-.35l.48-.04v-.73h-2.34v.7l.53.07,1.91,5.45h1.25l1.84-5.14c.1-.3.19-.34.39-.36l.28-.02v-.7h-2.13v.74l.61.05-1.58,4.58h-.01l-1.37-4.25ZM184.96,62.63c0,1.35-.45,2.46-1.63,2.46-.56,0-1.18-.24-1.54-.55v-2.76c0-.74.73-1.53,1.7-1.53,1.2,0,1.47,1.02,1.47,2.38M180.82,67.22c0,.31-.08.36-.31.4l-.34.05v.7h2.54v-.75l-.92-.05v-2.09c.4.27.98.47,1.61.47,1.57,0,2.59-1.18,2.59-3.36s-.79-3.22-2.32-3.22c-1.03,0-1.66.5-1.93,1.08v-.9h-1.62v.74l.38.03c.24.01.31.09.31.36v6.55ZM177.57,63.63c0,.78-.59,1.49-1.64,1.49-1.29,0-1.59-1.13-1.59-2.16,0-1.49.48-2.76,1.98-2.76.53,0,1.03.11,1.25.21v3.21ZM178.54,59.77c-.8-.3-1.67-.4-2.05-.4-2.13,0-3.17,1.34-3.17,3.56,0,1.82.74,3.02,2.51,3.02.98,0,1.52-.47,1.83-.93h.04v.75h1.54v-.7l-.43-.02c-.2-.01-.26-.1-.26-.34v-4.94ZM166.78,64.62c0,.31-.1.39-.34.41l-.31.04v.7h2.29v-.75l-.68-.04v-3.05c0-.9.7-1.68,1.67-1.68,1.09,0,1.28.65,1.28,1.53v2.83c0,.31-.09.39-.33.41l-.33.04v.7h2.29v-.75l-.66-.04v-3.46c0-1.43-.69-2.16-1.99-2.16-.78,0-1.52.33-1.93,1.1v-3.63h-1.65v.74l.38.02c.24.01.31.09.31.36v6.66ZM163.31,60.22c.19,0,.44.02.59.07.21.08.26.16.26.4v.84l.89-.06v-1.59c-.46-.33-1.04-.51-1.82-.51-1.28,0-2.86.74-2.86,3.28,0,2.15.99,3.3,2.8,3.3.92,0,1.64-.38,2.04-.74l-.41-.7c-.5.4-1.03.58-1.55.58-1.34,0-1.83-1.05-1.83-2.47,0-1.7.75-2.39,1.89-2.39M157.34,60.15c.25,0,.58.02.82.1.16.05.2.12.2.35v.66l.89-.09v-1.35c-.39-.27-1.1-.45-1.79-.45-1.24,0-2.27.59-2.27,1.84s.91,1.53,1.92,1.79c.83.21,1.28.38,1.28,1.1s-.54,1.04-1.34,1.04c-.25,0-.6-.05-.84-.14-.16-.06-.21-.12-.21-.33v-.78l-.91.09v1.55c.28.18,1.11.4,2.02.4,1.42,0,2.27-.68,2.27-1.9s-.94-1.56-1.9-1.84c-.74-.23-1.33-.39-1.33-1.1s.59-.95,1.22-.95M149.43,59.55h-1.62v.74l.38.03c.24.01.31.09.31.36v4.01c0,.25-.06.33-.3.35l-.35.04v.7h2.29v-.75l-.66-.04v-3.09c0-.8.68-1.64,1.69-1.64s1.25.64,1.25,1.57v2.85c0,.26-.05.31-.29.35l-.36.05v.7h2.29v-.75l-.66-.04v-3.46c0-1.43-.68-2.16-1.99-2.16-.82,0-1.54.31-1.98,1.08v-.9ZM145.19,63.63c0,.78-.59,1.49-1.64,1.49-1.29,0-1.59-1.13-1.59-2.16,0-1.49.48-2.76,1.98-2.76.53,0,1.03.11,1.26.21v3.21ZM146.16,59.77c-.8-.3-1.67-.4-2.05-.4-2.13,0-3.17,1.34-3.17,3.56,0,1.82.74,3.02,2.51,3.02.98,0,1.52-.47,1.83-.93h.04v.75h1.54v-.7l-.43-.02c-.2-.01-.26-.1-.26-.34v-4.94ZM131.65,59.55h-1.57v.74l.38.03c.24.01.31.09.31.36v3.99c0,.28-.06.33-.3.36l-.35.05v.7h2.29v-.75l-.68-.04v-3.11c0-.85.63-1.62,1.55-1.62,1.13,0,1.25.76,1.25,1.57v2.85c0,.26-.04.31-.28.35l-.38.05v.7h2.29v-.75l-.68-.04v-3.17c0-.82.64-1.56,1.51-1.56,1.1,0,1.29.67,1.29,1.56v2.81c0,.31-.12.4-.36.43l-.29.02v.7h2.29v-.75l-.68-.04v-3.41c0-1.43-.71-2.2-2.01-2.2-.83,0-1.53.34-1.94,1.16-.34-.83-.96-1.16-1.79-1.16-.76,0-1.48.34-1.88,1.1v-.93ZM124.48,64.62c0,.31-.06.39-.3.41l-.35.04v.7h2.29v-.75l-.68-.04v-1.7c.36-.05.65-.13,1-.29l1.54,2.78h1.34v-.75l-.68-.04-1.4-2.42c.65-.46,1.22-1.37,1.32-2.23l.61-.04v-.75h-2.27v.71l.48.02c.18.01.29.11.2.41-.24.87-1.14,1.67-2.14,1.78v-5.64h-1.65v.74l.4.02c.24.01.29.09.29.36v6.66ZM121.24,63.63c0,.78-.59,1.49-1.64,1.49-1.29,0-1.59-1.13-1.59-2.16,0-1.49.48-2.76,1.98-2.76.53,0,1.03.11,1.25.21v3.21ZM122.2,59.77c-.8-.3-1.67-.4-2.05-.4-2.13,0-3.17,1.34-3.17,3.56,0,1.82.74,3.02,2.51,3.02.98,0,1.52-.47,1.83-.93h.04v.75h1.54v-.7l-.43-.02c-.2-.01-.26-.1-.26-.34v-4.94ZM111.83,60.66c-.06-.2-.04-.33.15-.35l.48-.04v-.73h-2.35v.7l.53.07,1.9,5.45h1.25l1.84-5.14c.1-.3.19-.34.39-.36l.28-.02v-.7h-2.13v.74l.61.05-1.58,4.58h-.01l-1.37-4.25ZM104.85,60.39h1.65l.13-.84h-1.78v-1.4h-.52c-.2.72-.41,1.39-1.22,1.47l-.12.78h.89v3.69c0,.92.05,1.88,1.69,1.88.53,0,1.08-.16,1.44-.41l-.29-.7c-.21.12-.54.28-.96.28-.59,0-.9-.24-.9-1.07v-3.66ZM101.29,61.06c0,1.2-1.3,1.37-2.86,1.24.09-.92.56-2.15,1.87-2.15.6,0,.99.25.99.9M102.24,61.02c0-1.08-.7-1.65-1.92-1.65-1.87,0-2.93,1.48-2.93,3.5,0,1.72.73,3.08,2.78,3.08.94,0,1.67-.38,1.98-.61l-.35-.73c-.24.16-.78.5-1.57.5-1.33,0-1.78-.97-1.83-2.02,2.18.14,3.84-.28,3.84-2.07M94.47,64.61c0,.28-.09.34-.33.38l-.36.05v.74h2.33v-.79l-.65-.04v-6.33c0-.3.1-.38.34-.4l.35-.04v-.74h-2.33v.79l.65.05v2.72h-4.35v-2.41c0-.28.11-.35.35-.38l.34-.04v-.74h-2.33v.79l.65.04v6.34c0,.29-.11.34-.34.38l-.35.05v.74h2.33v-.79l-.65-.04v-3.09h4.35v2.75Z"/>
  <path class="cls-1" d="M288.8,36.68h-3.2v1.38l.59.06c.35.02.46.13.46.53v9.17c0,.46-.09.55-.44.61l-.57.06v1.33h4.14v-1.38l-.98-.07v-11.67ZM280.17,48.38c-1.66,0-1.9-1.78-1.9-3.48s.55-2.96,1.95-2.96,1.88,1.25,1.88,3.28c0,1.84-.55,3.17-1.93,3.17M275.99,45.16c0,3.33,1.53,4.9,4.05,4.9s4.36-1.55,4.36-5.13c0-4.23-2.71-4.64-4.07-4.64-1.91,0-4.34.99-4.34,4.88M270.42,48.38c-1.66,0-1.9-1.78-1.9-3.48s.55-2.96,1.95-2.96,1.88,1.25,1.88,3.28c0,1.84-.55,3.17-1.93,3.17M266.24,45.16c0,3.33,1.53,4.9,4.05,4.9s4.36-1.55,4.36-5.13c0-4.23-2.71-4.64-4.07-4.64-1.91,0-4.34.99-4.34,4.88M256.45,47.81c0,.46-.13.57-.48.61l-.53.06v1.33h4.07v-1.4l-.9-.04v-4.27c0-1.1.77-2.01,1.9-2.01,1.23,0,1.47.72,1.47,1.82v3.92c0,.39-.07.57-.39.61l-.57.06v1.31h4.09v-1.38l-.94-.06v-4.93c0-1.88-.75-3.15-2.89-3.15-.94,0-2.04.33-2.69,1.53v-5.14h-3.18v1.38l.59.06c.35.02.46.13.46.53v9.17ZM251.42,42.01c.22,0,.51.04.72.09.28.09.31.24.31.55v1.09l1.71-.13v-2.61c-.74-.46-1.73-.72-2.85-.72-2.14,0-4.43,1.23-4.43,4.93,0,3.18,1.58,4.84,4.29,4.84,1.4,0,2.56-.55,3.26-1.14l-.83-1.47c-.74.57-1.45.83-2.17.83-1.64,0-2.3-1.29-2.3-3.15,0-2.15.88-3.11,2.3-3.11M243.53,41.96c.22.07.28.18.28.5v.83l1.64-.15v-2.19c-.72-.44-1.82-.66-2.82-.66-2.08,0-3.68.98-3.68,2.91s1.38,2.37,2.76,2.72c1.1.28,1.78.46,1.78,1.34s-.64,1.23-1.6,1.23c-.37,0-.81-.07-1.09-.18-.22-.07-.29-.18-.29-.46v-.94l-1.67.13v2.41c.63.33,1.97.61,3.17.61,2.26,0,3.7-1.09,3.7-3.02s-1.44-2.32-2.8-2.72c-1.01-.29-1.82-.52-1.82-1.38,0-.77.64-1.1,1.45-1.1.31,0,.7.02.99.13M231.95,45.99c.44-.06.81-.15,1.23-.31l1.95,4.12h2.71v-1.38l-.99-.07-1.82-3.61c.96-.74,1.55-1.73,1.66-2.74l.86-.09v-1.38h-3.74v1.34l.48.06c.26.04.42.11.42.37,0,.92-1.38,2.1-2.76,2.23v-7.84h-3.2v1.38l.63.06c.33.02.42.13.42.53v9.22c0,.42-.15.53-.44.55l-.57.06v1.33h4.05v-1.38l-.88-.07v-2.36ZM224.62,46.71c0,.86-.66,1.67-1.84,1.67-1.53,0-1.9-1.44-1.9-2.89,0-1.88.53-3.55,2.36-3.55.55,0,1.1.13,1.38.24v4.53ZM226.78,40.91c-1.31-.5-2.65-.63-3.26-.63-3.26,0-4.86,2.04-4.86,5.28,0,2.58.99,4.47,3.68,4.47,1.27,0,2.08-.57,2.54-1.23l.06.02.05.98h2.72v-1.33l-.53-.04c-.31-.02-.4-.15-.4-.52v-7.01ZM210.84,39.73c-.15-.48-.04-.66.41-.72l.53-.06v-1.4h-4.4v1.45l.94.07,3.59,10.71h2.56l3.35-10.22c.13-.42.28-.57.61-.59l.41-.04v-1.4h-3.9v1.45l.94.06-2.59,8.38h-.02l-2.41-7.71ZM200.94,42.99c0,1.1-1.05,1.51-2.65,1.51-.24,0-.48,0-.74-.02.13-1.2.77-2.58,2.25-2.58.68,0,1.14.31,1.14,1.09M199.89,40.28c-2.95,0-4.55,2.28-4.55,5.13,0,2.61,1.16,4.64,4.27,4.64,1.69,0,2.91-.72,3.2-.94l-.64-1.53c-.46.31-1.25.76-2.32.76-1.6,0-2.21-1.07-2.3-2.3,3.13.11,5.36-.53,5.36-3.17,0-1.73-1.16-2.59-3.02-2.59M191.99,41.96c.22.07.28.18.28.5v.83l1.64-.15v-2.19c-.72-.44-1.82-.66-2.82-.66-2.08,0-3.68.98-3.68,2.91s1.38,2.37,2.76,2.72c1.1.28,1.79.46,1.79,1.34s-.64,1.23-1.6,1.23c-.37,0-.81-.07-1.09-.18-.22-.07-.29-.18-.29-.46v-.94l-1.67.13v2.41c.62.33,1.97.61,3.16.61,2.26,0,3.7-1.09,3.7-3.02s-1.44-2.32-2.8-2.72c-1.01-.29-1.82-.52-1.82-1.38,0-.77.64-1.1,1.45-1.1.31,0,.7.02.99.13M181.08,48.38c-1.53,0-1.9-1.47-1.9-3.11,0-1.82.61-3.33,2.26-3.33.61,0,1.12.17,1.45.33v4.45c0,.96-.68,1.66-1.82,1.66M185.05,47.87v-11.19h-3.18v1.38l.57.06c.33.04.46.15.46.53v1.9c-.52-.17-1.03-.26-1.62-.26-2.8,0-4.33,2.19-4.33,5.19,0,2.43.86,4.56,3.64,4.56.96,0,1.91-.31,2.54-1.23l.07.02.05.98h2.72v-1.33l-.55-.06c-.33-.04-.39-.15-.39-.55M167.14,47.88c0,.39-.09.51-.44.53l-.57.06v1.33h4.07v-1.38l-.88-.06v-4.31c0-1.01.74-1.97,1.91-1.97s1.45.74,1.45,1.86v3.96c0,.39-.11.5-.42.53l-.55.06v1.31h4.09v-1.38l-.94-.06v-4.93c0-2.14-.99-3.15-2.85-3.15-1.31,0-2.28.57-2.82,1.51h-.02v-1.27h-3.07v1.4l.59.04c.35.04.46.15.46.55v5.38ZM160.65,48.38c-1.66,0-1.9-1.78-1.9-3.48s.55-2.96,1.95-2.96,1.88,1.25,1.88,3.28c0,1.84-.55,3.17-1.93,3.17M156.47,45.16c0,3.33,1.53,4.9,4.05,4.9s4.36-1.55,4.36-5.13c0-4.23-2.71-4.64-4.07-4.64-1.91,0-4.34.99-4.34,4.88M152.9,42.1c.24,0,.39.02.51.09.15.06.17.17.17.48v1.16l1.84-.13v-3.07c-.52-.26-1.16-.35-1.69-.35-1.47,0-2.28.85-2.61,1.64h-.02v-1.4h-3.02v1.4l.63.04c.31.04.42.15.42.51v5.34c0,.42-.05.57-.46.61l-.55.06v1.33h4.64v-1.38l-1.47-.07v-4.34c0-1.07.63-1.9,1.62-1.9M144.08,46.03c0,1.08-.68,1.84-1.82,1.84-1.69,0-1.91-1.47-1.91-2.83,0-1.95.77-3.09,2.21-3.09.61,0,1.1.09,1.53.24v3.85ZM144.16,49.32c0,1.97-.66,2.8-2.28,2.8-.4,0-.75-.04-1.05-.15-.31-.11-.39-.22-.39-.59v-.88l-1.77.13v2.49c.79.4,2.17.62,3.28.62,3.85,0,4.31-2.69,4.31-4.71v-8.08c-1.21-.5-2.63-.66-3.52-.66-2.83,0-4.62,1.73-4.62,4.84,0,2.72,1.23,4.4,3.62,4.4,1.07,0,1.93-.42,2.41-1.12v.92ZM128.31,47.88c0,.39-.09.51-.44.53l-.57.06v1.33h4.07v-1.38l-.88-.06v-4.31c0-1.01.74-1.97,1.92-1.97s1.45.74,1.45,1.86v3.96c0,.39-.11.5-.42.53l-.55.06v1.31h4.09v-1.38l-.94-.06v-4.93c0-2.14-.99-3.15-2.85-3.15-1.31,0-2.28.57-2.82,1.51h-.02v-1.27h-3.07v1.4l.59.04c.35.04.46.15.46.55v5.38ZM124.11,42.99c0,1.1-1.05,1.51-2.65,1.51-.24,0-.48,0-.74-.02.13-1.2.77-2.58,2.24-2.58.68,0,1.14.31,1.14,1.09M123.06,40.28c-2.95,0-4.55,2.28-4.55,5.13,0,2.61,1.16,4.64,4.27,4.64,1.69,0,2.91-.72,3.2-.94l-.65-1.53c-.46.31-1.25.76-2.32.76-1.6,0-2.21-1.07-2.3-2.3,3.13.11,5.36-.53,5.36-3.17,0-1.73-1.16-2.59-3.02-2.59M114.32,40.52v1.42l.83.07-1.91,5.71h-.02l-1.66-5.23c-.09-.31-.02-.48.28-.52l.59-.05v-1.4h-4.18v1.36l.83.11,2.74,7.8h2.56l2.6-7.34c.15-.4.28-.5.57-.53l.44-.04v-1.36h-3.66ZM103.28,48.38c-1.66,0-1.9-1.78-1.9-3.48s.55-2.96,1.95-2.96,1.88,1.25,1.88,3.28c0,1.84-.55,3.17-1.93,3.17M99.1,45.16c0,3.33,1.53,4.9,4.05,4.9s4.36-1.55,4.36-5.13c0-4.23-2.71-4.64-4.07-4.64-1.91,0-4.34.99-4.34,4.88M91.22,39.1h1.45c1.27,0,2.15.37,2.15,1.64,0,1.16-.66,1.9-2.26,1.9h-1.34v-3.53ZM91.22,44.18h1.79c1.49,0,2.36.64,2.36,1.93,0,1.2-.59,2.06-2.43,2.06h-1.71v-3.99ZM93.15,37.56h-5.15v1.45l.98.07v8.72c0,.4-.11.51-.44.55l-.57.06v1.38h5.08c3.04,0,4.69-1.27,4.69-3.66,0-1.62-1.01-2.65-2.52-2.94,1.14-.44,1.92-1.31,1.92-2.71,0-2.3-1.92-2.93-3.98-2.93"/>
  <path class="cls-1" d="M267.23,56.87c-.12-.09-.21-.08-.29,0l-.79.78c-.08.08-.08.21,0,.3l1.48,1.48-2.89,2.85-2.89-2.85,1.48-1.48c.08-.08.08-.21,0-.3l-.78-.78c-.08-.08-.17-.09-.29,0-.57.41-1.21.96-1.64,1.35-.35.31-.67.64-.98.98-.39.43-.94,1.07-1.34,1.64-.09.12-.08.21,0,.3l.78.78c.08.08.21.08.29,0l1.48-1.48,2.84,2.88-4.04,4c-.09.09-.09.25,0,.34l.77.77c.09.09.25.09.34,0l3.99-4.04,3.99,4.04c.09.09.25.09.34,0l.77-.77c.09-.09.09-.25,0-.34l-4.04-4,2.85-2.88,2.56,1.52c.1.05.21-.06.15-.16l-1.5-2.6s-.08-.09-.12-.14h0s-2.5-2.19-2.5-2.19Z"/>
</svg>